{"title":"Red Riding Hood-2011-R5-XviD-AC3-BioniK","uid":6419582,"size":874222856,"categoryP":"video","categoryS":"movies","magnet":"?xt=urn:btih:b69f9fbcf315ae5cd092528dc6044cd0f581ef5e&amp;dn=Red+Riding+Hood-2011-R5-XviD-AC3-BioniK&amp;tr=udp%3A%2F%2Ftracker.openbittorrent.com%3A80&amp;tr=udp%3A%2F%2Fopen.demonii.com%3A1337&amp;tr=udp%3A%2F%2Ftracker.coppersurfer.tk%3A6969&amp;tr=udp%3A%2F%2Fexodus.desync.com%3A6969","seeders":1,"leechers":0,"uploader":"bionik2011","files":2,"time":1306270583,"description":"Set in a medieval village that is haunted by a werewolf, a young girl falls for an orphaned woodcutter, much to her family's displeasure.\n\n\nGary Oldman\t ...\tFather Solomon\nBilly Burke\t ...\tCesaire\nShiloh Fernandez\t ...\t\nPeter\nMax Irons\t ...\tHenry Lazar\nVirginia Madsen\t ...\tSuzette\nLukas Haas\t ...\tFather Auguste\nJulie Christie\t ...\tGrandmother\n\nFile size                        : 834 MiB\nDuration                         : 1h 39mn\nOverall bit rate                 : 1 169 Kbps\n\nVideo\nID                               : 1\nFormat                           : xvid\nCodec ID                         : xvid\nDuration                         : 1h 39mn\nBit rate                         : 954 Kbps\nWidth                            : 640 pixels\nHeight                           : 272 pixels\nDisplay aspect ratio             : 2.35:1\nFrame rate                       : 29.970 fps\nBits/(Pixel*Frame)               : 0.183\nStream size                      : 680 MiB (82%)\n\nAudio\nID                               : 2\nFormat                           : AC-3\nFormat/Info                      : Audio Coding 3\nMode extension                   : CM (complete main)\nMuxing mode                      : Header stripping\nCodec ID                         : A_AC3\nDuration                         : 1h 39mn\nBit rate mode                    : Constant\nBit rate                         : 192 Kbps\nChannel(s)                       : 2 channels\nChannel positions                : Front: L R\nSampling rate                    : 44.1 KHz\nBit depth                        : 16 bits\nCompression mode                 : Lossy\nStream size                      : 137 MiB (16%)\n &lt;a href=&quot;\nhttp://img405.imageshack.us/img405/3974/vlcsnap2011052418h32m49.png&quot; rel=&quot;nofollow&quot; target=&quot;_NEW&quot;&gt;\nhttp://img405.imageshack.us/img405/3974/vlcsnap2011052418h32m49.png&lt;/a&gt; &lt;a href=&quot;\nhttp://img3.imageshack.us/img3/4868/vlcsnap2011052418h33m09.png&quot; rel=&quot;nofollow&quot; target=&quot;_NEW&quot;&gt;\nhttp://img3.imageshack.us/img3/4868/vlcsnap2011052418h33m09.png&lt;/a&gt; &lt;a href=&quot;\nhttp://img228.imageshack.us/img228/3215/vlcsnap2011052418h34m09.png&quot; rel=&quot;nofollow&quot; target=&quot;_NEW&quot;&gt;\nhttp://img228.imageshack.us/img228/3215/vlcsnap2011052418h34m09.png&lt;/a&gt; &lt;a href=&quot;\nhttp://img862.imageshack.us/img862/6783/vlcsnap2011052418h35m13.png&quot; rel=&quot;nofollow&quot; target=&quot;_NEW&quot;&gt;\nhttp://img862.imageshack.us/img862/6783/vlcsnap2011052418h35m13.png&lt;/a&gt;","torrent":{"xt":"urn:btih:b69f9fbcf315ae5cd092528dc6044cd0f581ef5e","amp;dn":"Red+Riding+Hood-2011-R5-XviD-AC3-BioniK","amp;tr":["udp%3A%2F%2Ftracker.openbittorrent.com%3A80","udp%3A%2F%2Fopen.demonii.com%3A1337","udp%3A%2F%2Ftracker.coppersurfer.tk%3A6969","udp%3A%2F%2Fexodus.desync.com%3A6969"],"infoHash":"b69f9fbcf315ae5cd092528dc6044cd0f581ef5e","infoHashBuffer":{"type":"Buffer","data":[182,159,159,188,243,21,174,92,208,146,82,141,198,4,76,208,245,129,239,94]},"announce":[],"urlList":[]}}